<?xml version="1.0" encoding="UTF-8"?>
<svg id="Calque_2" data-name="Calque 2" xmlns="http://www.w3.org/2000/svg" viewBox="0 0 614.47 312.99">
  <defs>
    <style>
      .cls-1 {
        fill: #bf2f00;
      }

      .cls-2 {
        fill: #fff;
      }
    </style>
  </defs>
  <g id="Calque_1-2" data-name="Calque 1">
    <g>
      <path class="cls-1" d="M372.17,312.99c-24.49,0-49.43-4.7-74.12-13.96-16.52-6.19-28.85-12.64-33-17.25-5.38-5.97-6.87-13.83-3.9-20.51,3.05-6.85,10.05-11.1,18.27-11.1,1.69,0,3.42.18,5.14.54,4.12.86,9.04,3.18,16.74,6.89,3.46,1.67,7.04,3.4,8.99,4.13,21.59,8.08,42.59,12.18,62.4,12.18,32.82,0,59.88-11.27,80.42-33.5,2.23-2.41,4.33-4.94,6.26-7.54l2.87-3.87-4.82.27c-1.06.06-2,.09-2.86.09-14.8,0-26.26-6.47-31.45-17.76l-1.52-3.31-2.29,2.83c-9.74,12.04-23.24,18.67-38.02,18.67-6.22,0-12.56-1.21-18.84-3.6-13.18-5.01-23.33-14.71-29.34-28.05-2.32-5.16-2.99-6.26-4.71-6.26h-1.15l-.73.95c-.78,1.06-1.1,1.5,2.66,13.44,1.39,4.4,1.01,9-1.08,12.97-2.18,4.15-6.03,7.24-10.84,8.72-2.22.68-5.83,1.41-20.6,1.41-6.29,0-14.75-.16-18.46-.51-1.24-.11-5.57-.6-9.67-2.28l-.82-.34-.83.31c-2.98,1.12-5.8,1.65-7.48,1.97-4.92.92-9.66,1.25-10.33,1.27-.62.02-1.21.03-1.78.03-4.03,0-9.41-.45-15.25-3.99l-1.1-.67-1.14.61c-1.64.89-3.12,1.53-4.51,1.96-4.5,1.4-9.22,2.1-14.04,2.1-7.6,0-14.92-1.78-21.19-5.13l-1.23-.66-1.14.81c-4.62,3.28-10.24,3.8-12.94,4.05-5.66.52-13.83.81-23.01.81s-18.71-.3-25.24-.8l-.51-.04c-3.98-.29-12.24-.9-17.34-7.69-3.05-4.06-4.1-9.27-2.96-14.68,2.15-10.18,10.66-13.93,14.75-15.73l1.33-.58.28-1.05c.32-1.2.58-2.98.76-5.29.95-12.31,1.79-38.71,2.25-54.58.16-5.59-5.89-9.15-10.7-6.32-8.14,4.8-18.57,10.88-23.18,13.3-8.36,4.39-17.33,6.62-26.66,6.62-14.28,0-28.59-5.4-40.31-15.21-11.63-9.74-19.66-22.95-22.6-37.21-4.12-19.96-.28-38.92,11.11-54.84C25.99,17.07,49.27,4.06,74.99.82c4.34-.55,8.96-.82,13.74-.82,41.73,0,93.42,20.86,139.01,39.27,18.67,7.53,36.3,14.65,51.12,19.44,12.56,4.05,25.88,8.01,38.51,8.01,3.73,0,7.36-.35,10.77-1.03,1.01-.2,1.99-.47,2.92-.79l2.62-.89-1.4-2.39c-.85-1.45-1.46-2.87-1.86-4.37-1.92-7.1-.63-14.3,3.55-19.76,4.2-5.49,11.04-8.77,18.29-8.77,9.95,0,18.87,5.9,23.28,15.4,4.72,10.16,4.57,22.27-.41,34.1-4.64,11.01-12.93,20.62-22.76,26.35-3.14,1.83-6.53,3.47-10.05,4.86l-3.96,1.56,3.51,2.4c1.06.73,1.91,1.37,2.69,2.03,1.02.87,1.99,1.86,2.89,2.93l1.4,1.68,1.72-1.35c7.14-5.59,15.35-8.95,24.4-9.99,2-.23,4.02-.34,5.99-.34,12.03,0,23.32,4.21,32.64,12.19l1.6,1.37,1.48-1.5c2.33-2.37,4.97-4.11,6.91-5.38.54-.35,1.25-.82,1.6-1.07l.12-.09.11-.1c1.38-1.29,3.32-3.49,4.32-4.9l.06-.08.05-.08c.36-.61.98-1.94,1.64-3.37,3.27-7.05,8.75-18.84,21.53-18.84,2.05,0,4.1.35,6.08,1.05,7.59,2.66,11.15,9.11,11.21,20.29v2.12s2.13.12,2.13.12c1.66.1,3.3.45,4.87,1.04l2.87,1.08.18-3.06c.3-4.99.52-8.43.91-10.62,3.67-20.55,18.41-42.44,43.08-45.04,2.35-.25,4.73-.37,7.07-.37,17.19,0,30.23,6.87,35.79,18.86,4.91,10.58,4.69,21.4-.6,29.68-.72,1.13-1.54,2.21-2.44,3.21l-2.85,3.19,4.24.55c3.51.46,6.56,1.62,9.05,3.45l1.14.84,1.25-.67c4.02-2.13,8.14-3.17,12.61-3.17,1.58,0,3.21.13,4.86.39,12.59,1.99,20.96,13.17,19.91,26.57-1.03,13.06-10.67,22.91-22.43,22.91-.31,0-.63,0-.94-.02-1.84-.08-3.65-.42-5.39-1l-2.96-.98v3.12c-.03,4.3-.25,8.68-.47,12.92-.33,6.39-.67,12.91-.26,18.39l.1,1.35,1.23.55c2.03.9,3.88,2.07,5.5,3.46,5.28,4.52,7.31,11.41,5.3,17.97-2.27,7.43-9.52,13.27-17.61,14.2-3.73.43-10.8.69-18.91.69-5.88,0-13.8-.14-18.12-.83-5.99-.95-11.38-4.55-14.42-9.64l-2.37-3.97-1.67,4.31c-5.89,15.16-14.91,29.04-27.6,42.44-31.67,33.45-73.58,51.12-121.2,51.12Z"/>
      <g>
        <path class="cls-2" d="M279.26,217.62c2.78.26,10.27.46,17.41.46h0c9.49,0,15.31-.31,17.29-.91,1.91-.58,3.38-1.71,4.15-3.17.68-1.3.79-2.8.31-4.32-.89-2.83-3.34-4.5-5.7-6.12-2.59-1.77-5.04-3.45-5.52-6.51-1.04-6.73-.94-36.06.14-42.42.58-3.39,4.13-8.43,7.3-9.27,1.1-.29,2.09-.43,3.02-.43,2.03,0,3.5.7,5.21,1.52,1.78.85,3.81,1.82,6.57,1.97.29.02.57.02.85.02,5.23,0,9.42-2.88,11.2-7.7,2.12-5.76.33-12.79-4.27-16.73-3.28-2.8-6.85-4.22-10.59-4.22-5.9,0-12.15,3.67-17.59,10.32-.67.82-1.51,2.24-2.46,3.96.02-.19.04-.38.07-.58.48-4.3.94-8.37-1.15-10.47-1.09-1.09-2.8-1.63-5.23-1.63-6.44,0-17.09,3.74-20.05,5.38-4.72,2.62-6.63,4.5-6.81,6.71-.18,2.28,1.62,3.71,3.08,4.85.95.75,1.94,1.53,2.48,2.47.81,1.39,1.79,6.11,2,8.45,1.05,11.5,1.26,36.89.04,47.1-.45,3.77-2.33,4.78-4.94,6.19-1.96,1.06-4.18,2.25-5.56,4.77-1.63,2.96-1.44,5.96.51,7.83,1.73,1.66,8.2,2.47,8.26,2.47Z"/>
        <path class="cls-2" d="M176.65,201.14c-2.92-2.09-5.68-4.06-6.89-8.79-.22-.86-1.08-5.96-1.13-6.59v-118.35c9.75,3.09,19.5,6.62,28.95,10.04,9.32,3.37,18.96,6.86,28.59,9.92l.71.23c23.39,7.45,52.5,16.72,79.82,16.72,15.7,0,29.14-3.2,39.96-9.51,14.87-8.68,26.17-29.67,18.62-45.93-2.57-5.55-7.45-8.86-13.04-8.86-3.75,0-7.24,1.62-9.32,4.34-2.05,2.68-2.62,6.21-1.61,9.94.36,1.33,1.29,2.54,2.27,3.81.7.9,1.41,1.84,1.69,2.55,1.13,2.86,1.07,5.35-.17,7.63-2.48,4.56-9.25,7.36-14.75,8.47-4.14.83-8.52,1.26-13,1.26-14.28,0-28.57-4.23-41.98-8.55-15.19-4.9-33.01-12.09-51.87-19.71C178.87,31.72,128.27,11.3,88.72,11.3c-4.3,0-8.45.25-12.32.73-22.65,2.85-43.02,14.13-54.5,30.17-9.51,13.29-12.7,29.19-9.23,45.98,5.03,24.34,27.8,43.41,51.84,43.41h0c7.48,0,14.68-1.79,21.41-5.32,12.28-6.45,22.18-21.66,16.78-34.99-2.78-6.87-8.4-10.8-15.4-10.8-5.81,0-11.59,2.82-15.09,7.36-3.08,4-4.06,8.9-2.76,13.82.86,3.27,2.95,4.96,4.63,6.32.59.48,1.14.93,1.61,1.41-3.79,3.22-8.06,4.85-12.71,4.85-13.38,0-27.7-14.08-29.46-28.99-1.37-11.56,1.2-21.09,7.64-28.34,8.02-9.02,22.16-14.19,38.79-14.19,2.96,0,5.98.17,8.97.5,15.2,1.67,29.84,6.39,45.93,11.99-.09.48,1,106.34-.78,129.53-.46,5.93-1.48,11.82-5.89,14.79-.84.57-1.98,1.07-3.19,1.6-3.25,1.43-7.29,3.21-8.25,7.72-.47,2.24-.16,4.11.94,5.57,2.01,2.68,5.97,2.97,9.16,3.21l.53.04c6.26.48,15.37.77,24.38.77s16.63-.27,21.97-.77c3.7-.34,7.17-.87,8.86-3.48,1.03-1.59,1.14-3.6.32-5.98-1.17-3.44-3.75-5.28-6.25-7.07Z"/>
        <path class="cls-2" d="M592.72,120.58c-1.08-.17-2.12-.26-3.1-.26-5.98,0-9.74,3.16-13.72,6.5l-.18.15-4.08,5.2c-.33-7.73-1.88-12.52-9.5-12.52-2.34,0-5.34.45-9.72,1.46-1.75.4-5.54,1.88-9.2,3.32-1.4.55-3.02,1.18-4.12,1.59-1.23-1.81-3.46-4.69-6.77-4.69h-13.53c-.89-2.34-.53-11.24.44-17.74,1.37-9.19,4.38-20.06,10.94-21.16-.73,7.81,1.58,12.47,3.78,15.06,2.65,3.12,6.41,4.84,10.59,4.84,5.05,0,9.85-2.6,12.52-6.79,3.22-5.04,3.17-11.73-.12-18.84-3.68-7.94-12.76-12.31-25.54-12.31-1.94,0-3.92.1-5.89.31-18.83,1.98-30.21,19.41-33.14,35.79-.31,1.74-.55,5.78-.82,10.45-.2,3.42-.49,8.26-.77,10.52-.12,0-.24-.01-.37-.02-.51-.02-1.07-.05-1.64-.05-6.28,0-7.89,3.67-8.13,6.74-.17,2.15.47,4.07,1.84,5.55,1.73,1.87,4.64,2.99,8.03,3.1,1.44,40.79-.09,79.92-29.1,111.3-22.77,24.64-52.62,37.13-88.72,37.13-21.17,0-43.49-4.34-66.36-12.9-2.43-.91-6.07-2.66-9.92-4.52-5.75-2.77-11.18-5.39-14.17-6.02-.96-.2-1.9-.3-2.82-.3-3.69,0-6.74,1.68-7.95,4.4-1.17,2.63-.45,5.67,1.97,8.36,4.48,4.98,28.33,14.14,28.57,14.22,23.41,8.79,47.01,13.24,70.15,13.24,44.44,0,83.52-16.46,113-47.6,14.15-14.94,23.16-30.16,28.36-47.88,4.39-14.96,6.13-32.1,5.65-55.59-.02-.76-.16-1.86-.33-3.25-.82-6.42-.81-10.06-.06-10.78.12-.04.9-.22,3.95-.22,2.33,0,5.11.1,7.56.19,1.86.07,3.48.13,4.53.13.78,0,1.29-.34,2-.81.21-.14.58-.39.96-.61.38,1.29.97,2.9,1.95,4.03,1.02,1.19,2.29,1.82,3.41,2.38.79.4,1.54.77,1.81,1.18,1.56,2.34,1.23,4.68.85,7.38-.17,1.21-.35,2.45-.35,3.75-.03,4.16.16,9.06.35,14.26.37,10.04.8,21.41-.34,28.79-.58,3.76-3.22,4.91-6.02,6.12-1.98.86-4.03,1.75-5,3.7-.97,1.97-.96,4.12.04,6.05,1.23,2.38,3.86,4.2,6.7,4.65,3.93.62,12.75.69,16.36.69,7.48,0,14.39-.24,17.61-.61,3.59-.41,7.15-3.18,8.1-6.29.69-2.26.02-4.48-1.86-6.09-1.8-1.55-3.74-2.14-5.29-2.62-2.76-.85-4.28-1.32-5.04-6.58-1.03-7.13-.6-15.49-.18-23.58.29-5.72.6-11.62.38-17.02.81-2.89,5.77-9.85,7.77-10.84,1.13-.55,2.09-.82,2.95-.82,1.34,0,2.4.68,3.73,1.55,1.55,1,3.31,2.14,5.77,2.25.16,0,.31,0,.47,0,6.69,0,10.68-6.29,11.17-12.5.5-6.34-2.53-13.29-10.41-14.53Z"/>
        <path class="cls-2" d="M428.77,137.74c.51,0,1.05-.02,1.58-.05.45-.02.9-.04,1.34-.04.65,0,.99.06,1.15.1-.16,6.08-.05,12.25.05,18.23.11,6.48.22,13.19,0,19.73-.09,2.78-.47,5.6-.88,8.59-.98,7.3-1.99,14.85,1.2,22.22,3.23,7.45,10.82,11.55,21.37,11.55,5.15,0,10.74-1.07,15.33-2.93,4.91-1.99,7.71-4.89,8.11-8.4.23-2.06-.49-3.36-1.14-4.08-1.1-1.23-2.81-1.83-5.23-1.83-1.4,0-2.86.2-4.04.35-.72.1-1.47.2-1.89.2h0c-4.92-.14-6.61-3.56-7.16-6.4-1.69-8.73-1.51-46.97-.38-56.56l.03-.23c.02-.22.06-.56.11-.82.41-.05,1.19-.1,2.59-.1,1.84,0,4.04.08,5.98.16,1.51.06,2.85.11,3.7.11,2.31,0,4.3-.94,5.61-2.65,1.06-1.39,1.64-3.26,1.64-5.28,0-4.07-2.4-8.27-6.41-8.27h-12.95c-.12-1.49.09-4.4.25-6.64.54-7.69,1.05-14.96-3.34-16.5-.78-.27-1.57-.41-2.35-.41-5.57,0-8.6,6.53-11.28,12.3-.94,2.03-1.83,3.95-2.65,5.12-1.54,2.21-4.25,5.28-6.32,7.14-.65.59-1.78,1.33-2.97,2.11-3.45,2.27-7.03,4.62-7.05,7.88-.01,1.64.46,2.95,1.4,3.89,1.34,1.35,3.18,1.52,4.63,1.52Z"/>
        <path class="cls-2" d="M261.46,203.36c-1.34-.9-2.61-1.76-3.23-2.75-2.89-4.6-2.38-23.31-2.01-36.98.21-7.58.38-14.13.07-18.14-.96-12.18-10.33-26.41-33.58-26.41-11.65,0-22.98,4.23-29.56,11.04-4.49,4.64-6.75,10.35-6.54,16.52.32,9.38,7.02,13.58,13.53,13.58,5.81,0,12.66-3.49,13.99-11.17.42-2.42.47-4.7.51-6.72.13-5.91.17-7.89,6.97-7.89.53,0,1.09.02,1.69.05,6.89.37,7.14,7.75,6.75,17.36-.05,1.22-.1,2.4-.11,3.48-1.68.75-5.87,1.88-8.02,2.47-1.86.5-3.33.9-4.17,1.21-9.99,3.68-29.64,16.46-33.27,28.86-2.24,7.66-1.22,14.64,2.94,20.2,4.92,6.57,13.84,10.49,23.85,10.49,3.68,0,7.28-.54,10.7-1.6,2.04-.63,5.12-2.61,8.63-4.94.66-.43,1.41-.93,1.98-1.3.36.45.77,1.07,1.04,1.46.59.89,1.11,1.65,1.71,2.15,4.21,3.51,7.7,4.21,11.98,4.21h0c.45,0,.92,0,1.4-.02.17,0,16.78-1.06,18.24-5.46l.06-.19.03-.19c.75-5.06-2.9-7.52-5.56-9.32ZM232.3,170.32v23.82c-.06,2.6-8.64,8.25-11.31,8.68-8.31,1.31-11.81-3.95-12.01-10.28.1-3.06.86-6.37,2.27-9.46,1.71-3.74,5.05-7.13,9.07-9.63,3.79-2.1,8.08-3.28,11.97-3.12Z"/>
        <path class="cls-2" d="M339.1,162.58c-2.54,20.26,4.94,44.53,27.38,53.06,4.99,1.9,9.98,2.86,14.83,2.86h0c20.3,0,36.29-16.05,40.48-40.63,2.52-14.77-.76-32.16-10.38-43.56-7.98-9.46-18.8-14.67-30.46-14.67-1.55,0-3.13.09-4.71.27-22.28,2.55-34.71,23.27-37.15,42.67ZM367.29,148.82c1.59-5.7,5.66-14.5,12.42-14.95,5.22-.34,10.84,3.5,13.29,8.03,5.77,10.7,5.52,42.77.27,53.77-3.55,7.44-11.81,11.92-19.37,7.06-11.66-7.5-9.9-42.08-6.61-53.9Z"/>
      </g>
    </g>
  </g>
</svg>