<?xml version="1.0" encoding="UTF-8"?>
<svg id="Calque_2" data-name="Calque 2" xmlns="http://www.w3.org/2000/svg" viewBox="0 0 614.47 312.99">
  <defs>
    <style>
      .cls-1 {
        fill: #fff;
      }
    </style>
  </defs>
  <g id="Calque_1-2" data-name="Calque 1">
    <g>
      <path class="cls-1" d="M211.26,183.06c-1.42,3.09-2.17,6.41-2.27,9.46.2,6.33,3.69,11.59,12.01,10.28,2.68-.42,11.25-6.08,11.31-8.68v-23.82c-3.89-.17-8.18,1.02-11.97,3.12-4.02,2.5-7.36,5.89-9.08,9.63Z"/>
      <path class="cls-1" d="M379.71,133.87c-6.77.44-10.84,9.25-12.42,14.95-3.29,11.83-5.05,46.4,6.61,53.9,7.56,4.87,15.82.38,19.37-7.06,5.25-11,5.5-43.07-.27-53.77-2.44-4.53-8.07-8.37-13.29-8.03Z"/>
      <path class="cls-1" d="M594.48,109.42c-1.65-.26-3.29-.39-4.86-.39-4.47,0-8.59,1.04-12.61,3.17l-1.25.67-1.14-.84c-2.49-1.83-5.54-2.99-9.05-3.45l-4.24-.55,2.85-3.19c.9-1.01,1.72-2.09,2.44-3.21,5.29-8.28,5.51-19.1.6-29.68-5.56-11.99-18.61-18.86-35.79-18.86-2.34,0-4.72.13-7.07.37-24.66,2.6-39.41,24.49-43.08,45.04-.39,2.2-.62,5.63-.91,10.62l-.18,3.06-2.87-1.08c-1.57-.59-3.21-.94-4.87-1.04l-2.12-.12v-2.12c-.07-11.18-3.63-17.63-11.22-20.29-1.98-.69-4.03-1.05-6.08-1.05-12.78,0-18.25,11.79-21.53,18.84-.66,1.43-1.29,2.76-1.64,3.37l-.05.08-.06.08c-1.01,1.42-2.95,3.62-4.32,4.9l-.11.1-.12.09c-.35.25-1.06.72-1.6,1.07-1.93,1.27-4.58,3.01-6.91,5.38l-1.48,1.5-1.6-1.37c-9.32-7.97-20.61-12.19-32.64-12.19-1.98,0-3.99.12-5.99.34-9.05,1.03-17.26,4.4-24.4,9.99l-1.72,1.35-1.4-1.68c-.9-1.07-1.87-2.05-2.89-2.93-.77-.66-1.63-1.31-2.69-2.03l-3.51-2.41,3.96-1.56c3.53-1.39,6.91-3.03,10.05-4.86,9.83-5.73,18.12-15.34,22.76-26.35,4.98-11.83,5.13-23.94.41-34.1-4.41-9.5-13.33-15.4-23.28-15.4-7.25,0-14.08,3.28-18.29,8.77-4.17,5.46-5.47,12.66-3.55,19.76.4,1.49,1.01,2.92,1.86,4.37l1.4,2.39-2.62.89c-.93.32-1.91.58-2.92.79-3.41.69-7.04,1.03-10.77,1.03-12.64,0-25.95-3.96-38.51-8.01-14.82-4.78-32.45-11.9-51.12-19.44C182.14,20.86,130.46,0,88.72,0c-4.78,0-9.4.28-13.74.82C49.27,4.06,25.99,17.07,12.72,35.63,1.33,51.55-2.51,70.51,1.61,90.47c2.94,14.26,10.97,27.47,22.6,37.21,11.71,9.81,26.03,15.21,40.31,15.21,9.33,0,18.3-2.23,26.66-6.62,4.6-2.42,15.03-8.5,23.18-13.3,4.81-2.84,10.86.73,10.7,6.32-.45,15.87-1.3,42.27-2.25,54.58-.18,2.31-.43,4.09-.76,5.29l-.28,1.05-1.33.58c-4.09,1.8-12.59,5.55-14.75,15.73-1.14,5.41-.09,10.62,2.96,14.68,5.1,6.78,13.36,7.39,17.34,7.69l.51.04c6.53.5,15.96.8,25.24.8s17.35-.29,23.01-.81c2.7-.25,8.32-.77,12.94-4.05l1.14-.81,1.23.66c6.26,3.36,13.59,5.13,21.19,5.13,4.82,0,9.54-.71,14.04-2.1,1.39-.43,2.86-1.07,4.51-1.96l1.14-.61,1.1.67c5.84,3.54,11.22,3.99,15.25,3.99.57,0,1.15-.01,1.78-.03.67-.02,5.41-.35,10.33-1.27,1.68-.32,4.5-.84,7.48-1.97l.83-.31.82.34c4.1,1.68,8.43,2.17,9.67,2.28,3.71.35,12.17.51,18.46.51,14.77,0,18.38-.73,20.6-1.41,4.81-1.47,8.66-4.57,10.84-8.72,2.09-3.97,2.47-8.58,1.08-12.97-3.76-11.93-3.44-12.37-2.66-13.44l.73-.95h1.15c1.72,0,2.38,1.11,4.71,6.26,6.01,13.34,16.16,23.03,29.34,28.05,6.28,2.39,12.62,3.6,18.84,3.6,14.78,0,28.28-6.63,38.02-18.67l2.29-2.83,1.52,3.31c5.19,11.28,16.65,17.76,31.45,17.76.86,0,1.79-.03,2.86-.09l4.82-.27-2.87,3.87c-1.93,2.6-4.03,5.13-6.26,7.54-20.54,22.23-47.6,33.5-80.42,33.5-19.81,0-40.8-4.1-62.4-12.18-1.95-.73-5.53-2.46-8.99-4.13-7.69-3.71-12.62-6.03-16.74-6.89-1.72-.36-3.45-.54-5.14-.54-8.22,0-15.22,4.25-18.27,11.1-2.97,6.68-1.48,14.54,3.9,20.51,4.14,4.6,16.48,11.05,33,17.25,24.69,9.26,49.62,13.96,74.12,13.96,47.62,0,89.53-17.68,121.2-51.12,12.68-13.4,21.71-27.28,27.6-42.44l1.67-4.31,2.37,3.97c3.04,5.09,8.43,8.69,14.42,9.64,4.33.69,12.24.83,18.12.83,8.11,0,15.18-.26,18.91-.69,8.09-.94,15.34-6.78,17.61-14.21,2.01-6.56-.03-13.44-5.3-17.97-1.62-1.39-3.48-2.56-5.5-3.46l-1.23-.55-.1-1.35c-.41-5.48-.07-12,.26-18.39.22-4.24.44-8.63.46-12.92v-3.12s2.97.98,2.97.98c1.74.58,3.55.91,5.39,1,.32.01.63.02.94.02,11.76,0,21.4-9.85,22.43-22.91,1.05-13.41-7.32-24.58-19.91-26.57ZM267.03,212.68l-.03.19-.06.19c-1.46,4.4-18.07,5.45-18.24,5.46-.48.02-.95.02-1.4.02h0c-4.27,0-7.76-.7-11.98-4.21-.6-.5-1.11-1.26-1.71-2.15-.27-.4-.68-1.01-1.04-1.46-.58.37-1.33.86-1.98,1.3-3.52,2.33-6.59,4.31-8.63,4.94-3.42,1.06-7.02,1.6-10.7,1.6-10.01,0-18.93-3.92-23.85-10.49-4.16-5.55-5.18-12.54-2.94-20.2,3.63-12.4,23.28-25.18,33.27-28.86.84-.31,2.31-.71,4.17-1.21,2.16-.58,6.34-1.72,8.02-2.47.01-1.08.06-2.26.11-3.48.39-9.61.14-16.99-6.75-17.36-.6-.03-1.16-.05-1.69-.05-6.79,0-6.84,1.99-6.97,7.89-.04,2.02-.09,4.3-.51,6.72-1.33,7.67-8.18,11.17-13.99,11.17-6.5,0-13.21-4.2-13.53-13.58-.21-6.17,2.05-11.88,6.54-16.52,6.58-6.81,17.91-11.04,29.56-11.04,23.25,0,32.62,14.23,33.58,26.41.31,4.01.14,10.55-.07,18.14-.37,13.66-.88,32.38,2.01,36.98.63,1,1.89,1.85,3.23,2.75,2.66,1.79,6.31,4.25,5.56,9.32ZM226.89,87.59l-.71-.23c-9.63-3.07-19.27-6.55-28.59-9.92-9.45-3.42-19.2-6.94-28.95-10.04v118.35c.04.63.91,5.73,1.13,6.59,1.2,4.73,3.96,6.7,6.89,8.79,2.5,1.78,5.07,3.62,6.25,7.07.81,2.38.7,4.4-.32,5.98-1.69,2.61-5.16,3.14-8.86,3.48-5.33.49-13.13.77-21.97.77s-18.12-.29-24.38-.77l-.53-.04c-3.18-.23-7.14-.53-9.16-3.21-1.1-1.46-1.41-3.33-.94-5.57.95-4.51,5-6.29,8.25-7.72,1.21-.53,2.35-1.03,3.19-1.6,4.41-2.97,5.43-8.86,5.89-14.79,1.78-23.19.69-129.05.78-129.53-16.08-5.6-30.72-10.31-45.93-11.99-2.99-.33-6.01-.5-8.97-.5-16.64,0-30.78,5.17-38.79,14.19-6.44,7.25-9.01,16.78-7.64,28.34,1.76,14.9,16.08,28.99,29.46,28.99,4.66,0,8.93-1.63,12.71-4.85-.47-.48-1.02-.93-1.61-1.41-1.68-1.36-3.76-3.05-4.63-6.32-1.3-4.91-.32-9.82,2.76-13.82,3.5-4.54,9.28-7.36,15.09-7.36,7.01,0,12.62,3.94,15.4,10.8,5.4,13.33-4.51,28.54-16.78,34.99-6.72,3.53-13.93,5.32-21.41,5.32h0c-24.04,0-46.81-19.07-51.84-43.41-3.47-16.79-.28-32.69,9.23-45.98,11.48-16.04,31.85-27.32,54.5-30.17,3.87-.49,8.02-.73,12.32-.73,39.54,0,90.15,20.43,134.8,38.45,18.86,7.61,36.68,14.81,51.87,19.71,13.41,4.33,27.71,8.55,41.98,8.55,4.48,0,8.85-.42,13-1.26,5.5-1.11,12.27-3.91,14.75-8.47,1.24-2.27,1.29-4.77.17-7.63-.28-.71-1-1.65-1.69-2.55-.98-1.28-1.91-2.48-2.27-3.81-1.01-3.73-.44-7.26,1.61-9.94,2.08-2.72,5.56-4.34,9.32-4.34,5.59,0,10.46,3.31,13.04,8.86,7.55,16.26-3.75,37.25-18.62,45.93-10.81,6.31-24.25,9.51-39.96,9.51-27.33,0-56.43-9.27-79.82-16.72ZM330.29,148.43c-.28,0-.56,0-.85-.02-2.76-.15-4.78-1.12-6.57-1.97-1.7-.81-3.18-1.52-5.21-1.52-.93,0-1.92.14-3.02.43-3.17.84-6.73,5.88-7.3,9.27-1.08,6.35-1.18,35.69-.14,42.42.47,3.06,2.92,4.74,5.52,6.51,2.37,1.62,4.81,3.29,5.7,6.12.48,1.52.38,3.02-.31,4.32-.77,1.46-2.24,2.59-4.15,3.17-1.98.61-7.8.91-17.29.91h0c-7.14,0-14.62-.2-17.41-.46-.06,0-6.53-.82-8.26-2.47-1.95-1.87-2.14-4.87-.51-7.83,1.39-2.52,3.61-3.72,5.56-4.77,2.61-1.41,4.49-2.42,4.94-6.19,1.22-10.21,1.01-35.61-.04-47.1-.21-2.34-1.2-7.06-2-8.45-.54-.94-1.53-1.71-2.48-2.47-1.45-1.15-3.26-2.57-3.08-4.85.18-2.21,2.09-4.09,6.81-6.71,2.96-1.64,13.61-5.38,20.05-5.38,2.43,0,4.14.53,5.23,1.63,2.09,2.1,1.63,6.16,1.15,10.47-.02.19-.04.38-.06.58.95-1.73,1.79-3.14,2.46-3.96,5.44-6.66,11.69-10.32,17.59-10.32,3.75,0,7.31,1.42,10.59,4.22,4.6,3.93,6.4,10.97,4.27,16.73-1.78,4.82-5.97,7.7-11.2,7.7ZM421.79,177.86c-4.2,24.59-20.18,40.63-40.48,40.63h0c-4.84,0-9.83-.96-14.83-2.86-22.44-8.53-29.92-32.79-27.38-53.06,2.43-19.41,14.86-40.13,37.15-42.67,1.58-.18,3.16-.27,4.71-.27,11.66,0,22.48,5.21,30.46,14.67,9.62,11.4,12.9,28.79,10.38,43.56ZM454.58,218.06c-10.55,0-18.14-4.1-21.37-11.55-3.2-7.37-2.18-14.92-1.2-22.22.4-2.99.78-5.81.88-8.59.22-6.54.11-13.24,0-19.73-.1-5.97-.2-12.14-.05-18.23-.16-.04-.49-.1-1.15-.1-.43,0-.88.02-1.34.04-.53.03-1.06.05-1.58.05-1.45,0-3.3-.17-4.63-1.52-.94-.94-1.41-2.25-1.4-3.89.02-3.26,3.59-5.61,7.05-7.88,1.19-.78,2.32-1.53,2.97-2.11,2.06-1.86,4.78-4.93,6.32-7.14.82-1.17,1.71-3.09,2.65-5.12,2.68-5.76,5.71-12.3,11.28-12.3.78,0,1.57.14,2.35.41,4.39,1.54,3.88,8.81,3.34,16.5-.16,2.24-.36,5.15-.25,6.64h12.95c4.01,0,6.41,4.21,6.41,8.27,0,2.02-.58,3.89-1.64,5.28-1.3,1.71-3.29,2.65-5.61,2.65-.85,0-2.19-.05-3.7-.11-1.94-.07-4.14-.16-5.98-.16-1.4,0-2.17.05-2.59.1-.05.26-.09.6-.11.82l-.03.23c-1.13,9.6-1.31,47.84.38,56.56.55,2.84,2.24,6.25,7.16,6.4h0c.42,0,1.17-.1,1.89-.2,1.18-.16,2.64-.35,4.04-.35,2.42,0,4.13.6,5.23,1.83.65.72,1.37,2.02,1.14,4.08-.39,3.51-3.2,6.42-8.11,8.4-4.6,1.86-10.18,2.93-15.33,2.93ZM603.12,135.11c-.49,6.21-4.48,12.5-11.17,12.5-.15,0-.31,0-.47,0-2.46-.11-4.22-1.25-5.77-2.25-1.34-.86-2.39-1.55-3.73-1.55-.86,0-1.82.27-2.95.82-2,.99-6.96,7.95-7.77,10.84.23,5.4-.08,11.3-.38,17.02-.42,8.08-.85,16.44.18,23.58.76,5.26,2.28,5.73,5.04,6.58,1.55.48,3.49,1.07,5.29,2.62,1.87,1.61,2.55,3.82,1.86,6.09-.95,3.11-4.51,5.87-8.1,6.29-3.22.37-10.14.61-17.61.61-3.61,0-12.42-.07-16.36-.69-2.84-.45-5.47-2.28-6.7-4.65-1-1.93-1.01-4.08-.04-6.05.96-1.95,3.01-2.84,5-3.7,2.8-1.21,5.44-2.36,6.02-6.12,1.14-7.38.72-18.75.34-28.79-.19-5.19-.38-10.09-.35-14.26,0-1.29.18-2.54.35-3.75.38-2.71.71-5.04-.85-7.38-.27-.4-1.02-.78-1.81-1.18-1.12-.56-2.39-1.2-3.41-2.38-.98-1.14-1.57-2.75-1.95-4.03-.37.22-.75.47-.96.61-.71.47-1.22.81-2,.81-1.05,0-2.66-.06-4.53-.13-2.45-.09-5.23-.19-7.56-.19-3.06,0-3.83.19-3.96.22-.75.71-.76,4.35.06,10.78.18,1.39.32,2.49.33,3.25.48,23.49-1.27,40.64-5.65,55.59-5.19,17.72-14.21,32.93-28.36,47.88-29.49,31.14-68.56,47.6-113,47.6-23.13,0-46.73-4.46-70.15-13.24-.24-.09-24.09-9.25-28.57-14.22-2.42-2.69-3.14-5.74-1.97-8.36,1.21-2.71,4.25-4.4,7.95-4.4.91,0,1.86.1,2.82.3,2.99.63,8.42,3.25,14.17,6.02,3.85,1.86,7.49,3.61,9.92,4.52,22.86,8.56,45.19,12.9,66.36,12.9,36.1,0,65.95-12.49,88.72-37.13,29.01-31.39,30.54-70.51,29.1-111.3-3.39-.11-6.29-1.23-8.03-3.1-1.37-1.48-2.01-3.4-1.84-5.55.24-3.08,1.85-6.74,8.13-6.74.57,0,1.13.03,1.64.05.13,0,.25.01.37.02.28-2.25.57-7.1.77-10.52.27-4.67.51-8.7.82-10.45,2.93-16.39,14.31-33.81,33.14-35.79,1.96-.21,3.95-.31,5.89-.31,12.79,0,21.86,4.37,25.54,12.31,3.3,7.11,3.34,13.81.12,18.84-2.68,4.19-7.47,6.79-12.52,6.79-4.18,0-7.95-1.72-10.59-4.84-2.2-2.6-4.51-7.25-3.78-15.06-6.56,1.1-9.57,11.96-10.94,21.16-.97,6.5-1.33,15.4-.44,17.74h13.53c3.3,0,5.53,2.87,6.77,4.69,1.1-.4,2.72-1.04,4.12-1.59,3.66-1.43,7.45-2.92,9.2-3.32,4.38-1.01,7.38-1.46,9.72-1.46,7.62,0,9.17,4.79,9.5,12.52l4.08-5.21.18-.15c3.98-3.34,7.74-6.5,13.72-6.5.98,0,2.03.09,3.1.26,7.88,1.25,10.9,8.2,10.41,14.53Z"/>
    </g>
  </g>
</svg>